<svg width="521" height="521" viewBox="0 0 521 521" fill="none" xmlns="http://www.w3.org/2000/svg">
<g clip-path="url(#clip0_3:21)">
<path d="M427.794 100.066C428.994 80.466 427.193 60.266 420.494 38.866C418.094 31.566 410.094 30.266 405.193 33.967C404.593 33.366 403.994 32.767 403.393 32.767C345.893 5.86701 277.293 2.16701 214.893 0.367008C156.793 -0.831992 82.693 -0.831993 30.693 29.168C28.293 28.567 25.793 29.768 24.593 32.268C24.593 32.868 24.593 32.868 23.993 33.468C21.593 35.268 20.293 37.168 19.693 39.568C19.093 40.768 18.493 42.669 19.093 43.868C0.693003 87.368 2.593 128.368 24.593 171.768C39.293 200.568 60.093 225.668 77.793 252.568C97.393 283.168 103.493 318.668 108.393 354.168C113.893 395.168 114.493 445.969 143.293 478.969C168.393 508.368 215.493 526.668 254.093 518.168C329.994 499.769 336.693 399.469 345.294 336.368C345.294 335.768 345.294 335.768 345.294 335.168C368.594 361.469 409.594 373.769 441.394 358.469C479.995 339.469 498.294 287.469 508.094 248.969C521.494 193.066 516.594 46.767 427.794 100.066ZM415.594 154.566C447.994 165.566 451.694 204.766 442.494 235.366C430.294 276.366 396.594 289.266 361.693 269.066C370.294 244.566 381.893 221.366 395.393 196.866C403.994 182.667 410.693 168.566 415.594 154.566ZM44.093 45.566C90.593 20.466 152.993 21.066 203.793 21.066C261.293 21.066 326.793 23.466 381.893 45.566C307.894 131.866 139.593 89.066 44.093 45.566Z" fill="#5371FF"/>
</g>
<defs>
<clipPath id="clip0_3:21">
<rect width="520.255" height="520.255" fill="white"/>
</clipPath>
</defs>
</svg>
